{"asset":{"version":"2.0","generator":"babylon.js glTF exporter for Autodesk Maya 2019 v20210519.2"},"scene":0,"scenes":[{"nodes":[0]}],"nodes":[{"mesh":0,"name":"polySurface1"}],"meshes":[{"primitives":[{"attributes":{"POSITION":1,"TANGENT":2,"NORMAL":3,"TEXCOORD_0":4},"indices":0}],"name":"polySurface1"}],"accessors":[{"bufferView":0,"componentType":5123,"count":4776,"type":"SCALAR","name":"accessorIndices"},{"bufferView":1,"componentType":5126,"count":985,"max":[0.04559912,0.04559912,0.120341063],"min":[-0.04559913,-0.04559912,-0.165599138],"type":"VEC3","name":"accessorPositions"},{"bufferView":2,"componentType":5126,"count":985,"type":"VEC4","name":"accessorTangents"},{"bufferView":1,"byteOffset":11820,"componentType":5126,"count":985,"type":"VEC3","name":"accessorNormals"},{"bufferView":3,"componentType":5126,"count":985,"type":"VEC2","name":"accessorUVs"}],"bufferViews":[{"buffer":0,"byteLength":9552,"name":"bufferViewScalar"},{"buffer":0,"byteOffset":9552,"byteLength":23640,"byteStride":12,"name":"bufferViewFloatVec3"},{"buffer":0,"byteOffset":33192,"byteLength":15760,"byteStride":16,"name":"bufferViewFloatVec4"},{"buffer":0,"byteOffset":48952,"byteLength":7880,"byteStride":8,"name":"bufferViewFloatVec2"}],"buffers":[{"uri":"PrivacyScene.bin","byteLength":56832}]}